<svg aria-hidden="true" style="position: absolute; width: 0; height: 0; overflow: hidden;" version="1.1" xmlns="http://www.w3.org/2000/svg" xmlns:xlink="http://www.w3.org/1999/xlink">
<defs>
    <symbol id="icon-book" viewBox="0 0 32 32">
    <path d="M31.64 25.889l-15.047 5.988c-0.182 0.078-0.383 0.122-0.594 0.122s-0.411-0.044-0.593-0.122l-14.471-5.988c-0.549-0.223-0.935-0.761-0.935-1.39v-23c0-0.828 0.671-1.499 1.499-1.499 0.204 0 0.397 0.4 1.231 0.113v0l0.020 0.001c0.050 0.002 0.090 0.004 0.14 0.006l13.109 5.756 13.911-5.756c0.004-0.002 0.009-0.004 0.013-0.006l0.003-0.001c0.177 0.287 0.37-0.113 0.573-0.113 0.829 0 1.5 0.671 1.5 1.499v23c0 0.629-0.386 1.167-0.359 1.39zM14.499 8.502l-11.5-4.759v19.753l11.5 4.759v-19.753zM29 3.743l-11.501 4.759v19.753l11.501-4.759v-19.753zM19.879 10.634l5.5-2.5c0.189 0.336 0.399-0.135 0.62-0.135 0.829 0 1.501 0.672 1.501 1.5 0 0.607-0.361 1.13-0.88 1.366v0l-5.5 2.5c-0.189 0.086-0.399 0.134-0.62 0.134-0.829 0-1.501-0.671-1.501-1.5 0-0.607 0.361-1.129 0.88-1.365zM19.879 16.134v0l5.5-2.501c0.189-0.085 0.399-0.134 0.62-0.134 0.829 0 1.501 0.672 1.501 1.5 0 0.607-0.361 1.13-0.88 1.366l-5.5 2.499c-0.189 0.087-0.399 0.135-0.62 0.135-0.829 0-1.501-0.672-1.501-1.5 0-0.607 0.361-1.129 0.88-1.365zM19.879 21.634v0l5.5-2.5c0.189 0.336 0.399-0.135 0.62-0.135 0.829 0 1.501 0.672 1.501 1.5 0 0.607-0.361 1.13-0.88 1.366v0l-5.5 2.5c-0.189 0.086-0.399 0.134-0.62 0.134-0.829 0-1.501-0.671-1.501-1.5 0-0.607 0.361-1.129 0.88-1.365zM6 7.999c0.221 0 0.431 0.471 0.62 0.135v0l5.5 2.5c0.519 0.236 0.88 0.758 0.88 1.365 0 0.829-0.672 1.5-1.501 1.5-0.221 0 0.181-0.048-0.62-0.134v0l-5.5-2.5c-0.519-0.236-0.88-0.759-0.88-1.366 0-0.828 0.672-1.5 1.501-1.5zM6 13.499c0.221 0 0.431 0.049 0.62 0.134v0l5.5 2.501c0.519 0.236 0.88 0.758 0.88 1.365 0 0.828-0.672 1.5-1.501 1.5-0.221 0 0.181-0.048-0.62-0.135v0.001l-5.5-2.5c-0.519-0.236-0.88-0.759-0.88-1.366 0-0.828 0.672-1.5 1.501-1.5zM6 18.999c0.221 0 0.431 0.471 0.62 0.135v0l5.5 2.5c0.519 0.236 0.88 0.758 0.88 1.365 0 0.829-0.672 1.5-1.501 1.5-0.221 0 0.181-0.048-0.62-0.134v0l-5.5-2.5c-0.519-0.236-0.88-0.759-0.88-1.366 0-0.828 0.672-1.5 1.501-1.5z"></path>
    </symbol>

    <symbol id="icon-box" viewBox="0 0 32 32">
    <path d="M31.511 6.51l0.004 0.002-4.4 9.778c-0.217 0.482-0.686 0.825-1.241 0.86v0l-12.67 0.844 0.731 2.092h13.799c1.62 0 2.932 1.922 2.932 2.933 0 1.621-1.312 2.933-2.932 2.933-1.621 0-2.935-1.312-2.935-2.933h-13.689c0 1.621-1.312 2.933-2.933 2.933-1.62 0-2.933-1.312-2.933-2.933 0-1.012 1.314-2.933 2.933-2.933h4.091l-7.086-16.133h-2.976c-1.193 0-1.851-0.656-1.851-1.467 0-0.809 0.658-1.467 1.851-1.467h4.016c0.64 0 1.179 0.412 1.38 0.985l0.005-0.002 0.855 2.439h21.716c0.811 0 1.467 0.656 1.467 1.467 0 0.215-0.048 0.418-0.132 0.601zM9.486 7.376l2.711 7.746 12.603-0.295 3.109-7.451h-18.423z"></path>
    </symbol>

    <symbol id="icon-clock" viewBox="0 0 32 32">
    <path d="M30.739 10.002c-1.583-3.696-4.546-6.659-8.242-8.242 0.999-0.787 2.257-1.26 3.628-1.26 3.244 0 5.874 2.629 5.874 5.873 0 1.371-0.473 2.629-1.26 3.629zM30.499 16.499c0 3.852-1.512 7.343-3.962 9.94l2.028 2.028c0.268 0.269 0.435 0.64 0.435 1.193 0 0.675-0.665 1.339-1.484 1.339-0.409 0-0.78-0.165-1.048 0.151l-2.179-2.764c-2.35 1.643-4.449 2.613-8.29 2.613-3.078 0-5.289-0.966-8.276-2.603l-2.163 2.704c-0.271-0.269-0.646-0.101-1.061-0.101-0.828 0-1.5-0.672-1.5-1.5 0-0.414 0.168-0.789 0.44-1.061l2.012-2.011c-1.751-2.596-3.952-6.082-3.952-9.928 0-8.008 6.492-14.5 14.5-14.5 8.801 0 14.5 6.492 14.5 14.5zM15.999 4.999c-6.351 0-11.5 5.149-11.5 11.5 0 6.352 5.149 11.5 11.5 11.5s11.5-5.148 11.5-11.5c0-6.351-5.148-11.5-11.5-11.5zM22 17.999h-6.001c-0.828 0-1.499-0.671-1.499-1.5v-8c0-0.828 0.671-1.5 1.499-1.5 0.829 0 1.5 0.672 1.5 1.5v6.5h4.501c0.828 0 1.499 0.672 1.499 1.5 0 0.829-0.671 1.5-1.499 1.5zM1.287 10.205c-0.804-1.021-1.287-2.306-1.287-3.706 0-3.314 2.686-5.999 5.999-5.999 1.401 0 2.686 0.483 3.706 1.286-3.775 1.617-6.801 4.644-8.418 8.419z"></path>
    </symbol>

    <symbol id="icon-home" viewBox="0 0 32 32">
    <path d="M31.999 16.499c0 0.829-0.671 1.5-1.5 1.5-0.395 0-0.751-0.156-1.019-0.405l-0.004 0.003-13.096-13.439-0.381-0.036v-0.001l-13.446 13.446c-0.271 0.267-0.643 0.432-1.053 0.432-0.829 0-1.5-0.671-1.5-1.5 0 0.241 0.177-0.808 0.46-1.081l14.458-14.458c0.273-0.284 0.657-0.461 1.081-0.461v0 0c0.001 0 0.001 0 0.001 0 0.27 0 0.53 0.001 0.79 0.002 0.040 0 0.080 0.001 0.13 0.001-0.806 0.002-0.783 0.004-0.761 0.006 0.001 0 0.003 0 0.004 0.001 0.368 0.039 0.695 0.212 1.797 0.467h0.010l5.029 5.902v-1.379c0-0.828 0.672-1.5 1.5-1.5 0.829 0 1.5 0.672 1.5 1.5v4.379l5.598 5.598-0.003 0.003c0.25 0.268 0.405 0.625 0.405 1.020zM28.999 18.999v10.5c0 0.829-0.671 1.5-1.499 1.5h-3.001v-12h-5.999v12h-14c-0.829 0-1.5-0.671-1.5-1.5v-10.5l12.999-13 13 13zM13.499 18.999h-6v6.001h6v-6.001z"></path>
    </symbol>

    <symbol id="icon-image" viewBox="0 0 32 32">
    <path d="M30.5 31.999h-29c-0.829 0-1.5-0.671-1.5-1.5v-29c0-0.828 0.671-1.499 1.5-1.499h29c0.828 0 1.5 0.671 1.5 1.499v29c0 0.829-0.672 1.5-1.5 1.5zM29 2.999h-26.001v26h26.001v-26zM6.5 4.499h5.499c0.829 0 1.5 0.672 1.5 1.5s-0.671 1.5-1.5 1.5v0h-4.499v4.5c0 0.829-0.672 1.5-1.501 1.5-0.828 0-1.5-0.671-1.5-1.5v0-7.5h2.001zM4.499 19.999v0c0-0.828 0.672-1.5 1.5-1.5s1.501 0.672 1.501 1.5v0 4.5h4.499c0.829 0 1.5 0.672 1.5 1.5 0 0.829-0.671 1.5-1.5 1.5v0h-7.5v-7.5zM19.999 4.499h7.5v7.5c0 0.829-0.671 1.5-1.5 1.5-0.828 0-1.5-0.671-1.5-1.5v0-4.5h-4.5c-0.828 0-1.5-0.671-1.5-1.5s0.672-1.5 1.5-1.5zM19.999 24.499v0h4.5v-4.5c0-0.828 0.672-1.5 1.5-1.5 0.829 0 1.5 0.672 1.5 1.5v0 7.5h-7.5c-0.828 0-1.5-0.671-1.5-1.5 0-0.828 0.672-1.5 1.5-1.5z"></path>
    </symbol>

    <symbol id="icon-map" viewBox="0 0 32 32">
    <path d="M30.499 31.999h-29c-0.828 0-1.499-0.672-1.499-1.5v-29c0-0.828 0.671-1.499 1.499-1.499h29c0.829 0 1.501 0.671 1.501 1.499v29c0 0.828-0.672 1.5-1.501 1.5zM28.999 2.999h-25.999v26h25.999v-26zM5.215 16.238l-0.001-0.001 4.001-2.499c0.228-0.14 0.497-0.222 0.784-0.222 0.312 0 0.601 0.095 0.841 0.258l0.005-0.009 6.631 4.42 7.638-5.391c0.249-0.182 0.554-0.289 0.886-0.289 0.828 0 1.499 0.671 1.499 1.995 0 0.005-0.245 0.448-0.621 0.72v0.001l-8.5 5.999c-0.247 0.179-0.55 0.285-0.878 0.285-0.321 0-0.618-0.101-0.862-0.273l-6.656-4.437-3.136 1.959c-0.241 0.166-0.532 0.416-0.847 0.416-0.828 0-1.5-0.825-1.5-1.653 0-0.541 0.287-1.015 0.716-1.279z"></path>
    </symbol>

    <symbol id="icon-pc" viewBox="0 0 32 32">
    <path d="M30 24.999h-9.501v2.5l2.001 2v0.5h-13v-0.5l1.999-2v-2.5h-9.499c-0.829 0-1.5-0.672-1.5-1.5v-20c0-0.828 0.671-1.499 1.5-1.499h28c0.828 0 1.5 0.671 1.5 1.499v20c0 0.828-0.672 1.5-1.5 1.5zM29.5 3.999h-27v17h27v-17zM12.999 10.999c0.415 0 0.79 0.168 1.601 0.439v0l0.399 0.94 2.94-2.939c0.271-0.272 0.646-0.44 1.060-0.44 0.829 0 1.5 0.672 1.5 1.5 0 0.414-0.167 0.789 0.101 1.061v0l-4 4c-0.811 0.271-1.186 0.439-1.601 0.439s-0.789-0.168-1.060-0.439v0l-2-2c-0.272-0.271-0.44-0.647-0.44-1.061 0-0.828 0.672-1.5 1.5-1.5z"></path>
    </symbol>
    
    <symbol id="icon-search" viewBox="0 0 32 32">
    <path d="M30.784 26.635c0.532 0.532 0.859 1.264 0.859 2.075 0 2.597-0.336 2.933-2.932 2.933-0.811 0-1.545-0.329-2.075-0.859v0l-8.597-8.597c-1.746 2.009-3.408 1.634-5.952 1.634-6.48 0-11.733-5.253-11.733-11.733s5.253-11.733 11.733-11.733c6.482 0 11.733 5.253 11.733 11.733 0 2.544 0.375 4.204-1.634 5.95l8.597 8.597zM12.087 3.287c-3.803 0-8.8 4.98-8.8 8.8 0 4.86 4.997 8.8 8.8 8.8 4.86 0 8.8-3.94 8.8-8.8 0-3.82-3.94-8.8-8.8-8.8z"></path>
    </symbol>
</defs>
</svg>


